<?xml version="1.0" encoding="UTF-8" standalone="no"?>
<svg
   xmlns:dc="http://purl.org/dc/elements/1.1/"
   xmlns:cc="http://creativecommons.org/ns#"
   xmlns:rdf="http://www.w3.org/1999/02/22-rdf-syntax-ns#"
   xmlns:svg="http://www.w3.org/2000/svg"
   xmlns="http://www.w3.org/2000/svg"
   xmlns:sodipodi="http://sodipodi.sourceforge.net/DTD/sodipodi-0.dtd"
   xmlns:inkscape="http://www.inkscape.org/namespaces/inkscape"
   width="24px"
   height="24px"
   viewBox="0 0 24 24"
   version="1.1"
   id="svg2"
   inkscape:version="0.91 r13725"
   sodipodi:docname="icon-iphone.svg">
  <metadata
     id="metadata17">
    <rdf:RDF>
      <cc:Work
         rdf:about="">
        <dc:format>image/svg+xml</dc:format>
        <dc:type
           rdf:resource="http://purl.org/dc/dcmitype/StillImage" />
      </cc:Work>
    </rdf:RDF>
  </metadata>
  <sodipodi:namedview
     pagecolor="#ffffff"
     bordercolor="#666666"
     borderopacity="1"
     objecttolerance="10"
     gridtolerance="10"
     guidetolerance="10"
     inkscape:pageopacity="0"
     inkscape:pageshadow="2"
     inkscape:window-width="640"
     inkscape:window-height="480"
     id="namedview15"
     showgrid="false"
     inkscape:zoom="9.8333333"
     inkscape:cx="12"
     inkscape:cy="12"
     inkscape:window-x="0"
     inkscape:window-y="24"
     inkscape:window-maximized="0"
     inkscape:current-layer="svg2" />
  <!-- Generator: Sketch 39.1 (31720) - http://www.bohemiancoding.com/sketch -->
  <title
     id="title4">icon-iphone</title>
  <desc
     id="desc6">Created with Sketch.</desc>
  <defs
     id="defs8" />
  <g
     id="Page-1"
     stroke="none"
     stroke-width="1"
     fill="none"
     fill-rule="evenodd"
     style="fill:#ffffff">
    <g
       id="Group"
       transform="translate(5.000000, 3.000000)"
       fill="#1EBEA5"
       style="fill:#ffffff">
      <path
         d="M10.6587907,8.48246154 C10.6412558,6.49907692 12.2544651,5.53415385 12.3282326,5.48923077 C11.4146047,4.13353846 9.99851163,3.94830769 9.50088372,3.93353846 C8.31153488,3.80615385 7.15786047,4.65784615 6.552,4.65784615 C5.93404651,4.65784615 5.00106977,3.94584615 3.99553488,3.96676923 C2.7015814,3.98707692 1.49106977,4.74953846 0.827162791,5.93353846 C-0.542976744,8.34769231 0.478883721,11.8953846 1.7915814,13.8467692 C2.44823256,14.8024615 3.21553488,15.8695385 4.21986047,15.832 C5.2024186,15.7907692 5.56944186,15.1944615 6.75516279,15.1944615 C7.93,15.1944615 8.27465116,15.832 9.29893023,15.808 C10.3534419,15.7907692 11.0173488,14.848 11.6510233,13.8836923 C12.4098605,12.7883077 12.7146047,11.7095385 12.7266977,11.6541538 C12.701907,11.6455385 10.6787442,10.8596923 10.6587907,8.48246154 L10.6587907,8.48246154 Z"
         id="Shape"
         style="fill:#ffffff" />
      <path
         d="M8.72390698,2.64984615 C9.25237209,1.97723077 9.61395349,1.06215385 9.5135814,0.133538462 C8.74869767,0.168 7.79213953,0.672 7.24130233,1.32984615 C6.75395349,1.90953846 6.31860465,2.85969231 6.43106977,3.75323077 C7.29027907,3.81846154 8.17246512,3.312 8.72390698,2.64984615 L8.72390698,2.64984615 Z"
         id="path13"
         style="fill:#ffffff" />
    </g>
  </g>
</svg>
